<svg width="93" height="94" viewBox="0 0 93 94" fill="none" xmlns="http://www.w3.org/2000/svg">
<g clip-path="url(#clip0_48_387)">
<path d="M81.8832 0.299805V30.6202H65.5429L49.2026 14.2799V0.299805H81.8832Z" fill="#FF6536"/>
<path d="M81.8832 0.299805V30.6202H65.5429L54.6494 19.7266V0.299805H81.8832Z" fill="#F03800"/>
<path d="M32.8622 11.5565H65.5429V30.6202H32.8622V11.5565Z" fill="#FDBF00"/>
<path d="M54.6494 11.5565H65.5429V30.6202H54.6494V11.5565Z" fill="#FF9100"/>
<path d="M92.9583 71.4711V76.9178H22.241L16.7942 22.4501H0V17.0033H21.6963L22.7857 27.8969H92.9583L86.8938 66.0243H26.5984L27.1431 71.4711H92.9583Z" fill="#7ED8F6"/>
<path d="M27.4155 85.088C27.4155 89.593 31.0807 93.2582 35.5856 93.2582C40.0906 93.2582 43.7558 89.593 43.7558 85.088C43.7558 80.5831 40.0906 76.9178 35.5856 76.9178C31.0807 76.9178 27.4155 80.5831 27.4155 85.088Z" fill="#7ED8F6"/>
<path d="M81.8832 85.088C81.8832 89.6086 78.2343 93.2582 73.7131 93.2582C69.1918 93.2582 65.5429 89.6086 65.5429 85.088C65.5429 80.5668 69.1918 76.9178 73.7131 76.9178C78.2343 76.9178 81.8832 80.5668 81.8832 85.088Z" fill="#6AA9FF"/>
<path d="M54.6494 71.4711H92.9584V76.9178H54.6494V71.4711Z" fill="#6AA9FF"/>
<path d="M86.8938 66.0243H54.6494V27.8969H92.9584L86.8938 66.0243Z" fill="#6AA9FF"/>
</g>
<defs>
<clipPath id="clip0_48_387">
<rect width="92.9583" height="92.9583" fill="white" transform="translate(0 0.299805)"/>
</clipPath>
</defs>
</svg>
