<svg width="93" height="93" viewBox="0 0 93 93" fill="none" xmlns="http://www.w3.org/2000/svg">
<g clip-path="url(#clip0_48_373)">
<path d="M40.6693 0L40.3733 2.36572C40.0719 4.77138 38.3435 6.75582 35.9996 7.3822C33.9781 7.98461 31.1218 7.1863 29.7104 5.22164L28.2706 3.32253L18.2086 9.13243L19.1382 11.3347C20.0786 13.5679 19.5757 16.1479 17.8618 17.8618C16.1994 19.4976 13.6647 20.0908 11.3347 19.1382L9.13243 18.2086L3.32253 28.2706L5.22164 29.7104C7.15343 31.1719 8.00858 33.6593 7.3822 35.9996C6.78342 38.1946 4.89447 40.0365 2.36572 40.3733L0 40.6693V52.2891L2.36572 52.585C4.77138 52.8864 6.75582 54.6148 7.3822 56.9588C7.98443 58.9802 7.1863 61.8365 5.22164 63.248L3.32253 64.6877L9.13243 74.7498L11.3347 73.8202C13.5679 72.8797 16.1479 73.3826 17.8618 75.0965C19.4976 76.7589 20.0908 79.2936 19.1382 81.6236L18.2086 83.8259L28.2706 89.6358L29.7104 87.7367C31.1719 85.8049 33.6593 84.9498 35.9996 85.5761C38.1946 86.1749 40.0365 88.0639 40.3733 90.5926L40.6693 92.9583H46.4792L50.537 46.4799L46.4792 0L40.6693 0Z" fill="#9BCFFF"/>
<path d="M52.2891 0L52.585 2.36572C52.8864 4.77138 54.6148 6.75582 56.9588 7.3822C58.9803 7.98461 61.8365 7.1863 63.248 5.22164L64.6877 3.32253L74.7498 9.13243L73.8202 11.3347C72.8797 13.5679 73.3826 16.1479 75.0965 17.8618C76.7589 19.4976 79.2936 20.0908 81.6236 19.1382L83.8259 18.2086L89.6358 28.2706L87.7367 29.7104C85.8049 31.1719 84.9498 33.6593 85.5761 35.9996C86.1749 38.1946 88.0639 40.0365 90.5926 40.3733L92.9583 40.6693V52.2891L90.5926 52.585C88.187 52.8864 86.2025 54.6148 85.5761 56.9588C84.9739 58.9802 85.772 61.8365 87.7367 63.248L89.6358 64.6877L83.8259 74.7498L81.6236 73.8202C79.3904 72.8797 76.8105 73.3826 75.0965 75.0965C73.4607 76.7589 72.8675 79.2936 73.8202 81.6236L74.7498 83.8259L64.6877 89.6358L63.248 87.7367C61.7864 85.8049 59.2991 84.9498 56.9588 85.5761C54.7637 86.1749 52.9218 88.0639 52.585 90.5926L52.2891 92.9583H46.4792V0L52.2891 0Z" fill="#32A7FF"/>
<path d="M54.5949 46.4792L46.4792 77.6057C29.2873 77.6057 15.3526 63.671 15.3526 46.4792C15.3526 29.2873 29.2873 15.3527 46.4792 15.3527L54.5949 46.4792Z" fill="#524A8F"/>
<path d="M77.6057 46.4792C77.6057 63.671 63.671 77.6057 46.4792 77.6057V15.3527C63.671 15.3527 77.6057 29.2873 77.6057 46.4792Z" fill="#342C6E"/>
<path d="M35.0486 56.9186L24.6098 46.4792L35.0486 36.0408L38.9 39.8924L32.3126 46.4793L38.9002 53.0674L35.0486 56.9186Z" fill="#FFEB00"/>
<path d="M57.9098 56.9189L54.0584 53.0673L60.6457 46.4803L54.0582 39.8923L57.9098 36.041L68.3485 46.4805L57.9098 56.9189Z" fill="#FFBB00"/>
<path d="M46.4792 52.9227L43.2982 59.7439L38.3635 57.4417L46.4792 40.0356L49.1065 42.1889L46.4792 52.9227Z" fill="#FFEB00"/>
<path d="M54.5949 35.5166L46.4792 52.9227V40.0357L49.6601 33.2145L54.5949 35.5166Z" fill="#FFBB00"/>
</g>
<defs>
<clipPath id="clip0_48_373">
<rect width="92.9583" height="92.9583" fill="white"/>
</clipPath>
</defs>
</svg>
