<svg width="93" height="94" viewBox="0 0 93 94" fill="none" xmlns="http://www.w3.org/2000/svg">
<path d="M70.3658 53.649V83.4342C70.3658 85.4073 68.7697 87.0159 66.7841 87.0159H26.5553C24.5822 87.0159 22.9735 85.4199 22.9735 83.4342V53.649C37.3257 63.3512 53.1231 63.3512 70.3658 53.649Z" fill="#FF003B"/>
<path d="M34.8373 75.768C34.3975 75.592 33.8068 75.4161 33.103 75.2527C32.5375 75.127 32.1102 75.0139 31.8086 74.9008C31.5069 74.7877 31.243 74.6369 31.0419 74.4484C30.8409 74.2599 30.7529 74.0211 30.7529 73.7195C30.7529 73.267 30.954 72.9151 31.3813 72.6638C31.8086 72.3999 32.3867 72.2742 33.0779 72.2742C33.8194 72.2742 34.5357 72.3873 35.2269 72.6386C35.3275 72.6763 35.4155 72.7015 35.4783 72.7015C35.6668 72.7015 35.8176 72.6261 35.9433 72.4878C36.0564 72.3496 36.1192 72.1988 36.1192 72.0354C36.1192 71.7212 35.9684 71.5076 35.6794 71.407C34.875 71.1054 33.9576 70.9546 32.9522 70.9546C32.1982 70.9546 31.5446 71.0803 31.0168 71.3316C30.4764 71.583 30.0617 71.9349 29.7852 72.3622C29.5087 72.7895 29.3705 73.2796 29.3705 73.8074C29.3705 74.4107 29.5464 74.9134 29.8857 75.2778C30.2125 75.6423 30.6146 75.9062 31.0796 76.0947C31.5321 76.2707 32.1102 76.4466 32.8642 76.6477C33.4298 76.7985 33.8445 76.9116 34.1336 77.0122C34.4226 77.1127 34.6614 77.2509 34.8625 77.4269C35.051 77.5903 35.139 77.7913 35.139 78.0427C35.139 79.0355 34.3975 79.5131 32.8642 79.5131C31.9342 79.5131 31.0419 79.3372 30.2376 78.9727C30.1496 78.935 30.0491 78.9099 29.9486 78.9099C29.76 78.9099 29.5967 78.9853 29.4836 79.1109C29.3705 79.2366 29.3076 79.4 29.3076 79.5634C29.3076 79.7016 29.3453 79.8273 29.4333 79.9404C29.5087 80.0535 29.6218 80.1415 29.7475 80.1917C30.7529 80.619 31.8463 80.8453 33.0025 80.8453C33.6937 80.8453 34.3095 80.7322 34.8499 80.4934C35.3903 80.2546 35.8176 79.9404 36.1067 79.5257C36.4083 79.1109 36.5591 78.6334 36.5591 78.1055C36.5591 77.4772 36.3957 76.9619 36.069 76.5849C35.6794 76.2204 35.2898 75.9439 34.8373 75.768Z" fill="white"/>
<path d="M43.9614 71.0802H37.2252C37.0367 71.0802 36.8858 71.143 36.7602 71.2813C36.6345 71.407 36.5717 71.5703 36.5717 71.7589C36.5717 71.9474 36.6345 72.0982 36.7602 72.2238C36.8858 72.3495 37.0492 72.4124 37.2252 72.4124H39.9021V80.0786C39.9021 80.2671 39.9649 80.443 40.1031 80.5687C40.2288 80.707 40.4048 80.7698 40.5933 80.7698C40.7944 80.7698 40.9577 80.6944 41.096 80.5687C41.2342 80.4305 41.3096 80.2671 41.3096 80.0786V72.4124H43.974C44.1625 72.4124 44.3133 72.3495 44.4515 72.2238C44.5772 72.0982 44.6526 71.9348 44.6526 71.7589C44.6526 71.5829 44.5898 71.407 44.4515 71.2813C44.3133 71.143 44.1499 71.0802 43.9614 71.0802Z" fill="white"/>
<path d="M52.4193 71.5704C51.703 71.1431 50.8484 70.9294 49.8933 70.9294C48.9381 70.9294 48.0835 71.1431 47.3546 71.5704C46.6257 71.9977 46.0602 72.5884 45.6706 73.3298C45.281 74.0713 45.0673 74.9259 45.0547 75.8936C45.0799 76.8488 45.281 77.7159 45.6706 78.4448C46.0602 79.1863 46.6257 79.777 47.3546 80.2043C48.0835 80.6316 48.9381 80.8452 49.8933 80.8452C50.8484 80.8452 51.703 80.6316 52.4193 80.2043C53.1357 79.777 53.7012 79.1863 54.1034 78.4448C54.5056 77.7034 54.7066 76.8362 54.7318 75.8936C54.7192 74.9511 54.5056 74.0839 54.1034 73.3424C53.7012 72.5884 53.1357 71.9977 52.4193 71.5704ZM49.8933 79.5005C49.1769 79.5005 48.5611 79.3371 48.0584 79.023C47.5431 78.7088 47.1535 78.2815 46.877 77.7285C46.6006 77.1881 46.4623 76.5597 46.4623 75.8811C46.4623 75.2024 46.6006 74.5615 46.877 74.0211C47.141 73.4807 47.5431 73.0534 48.0584 72.7392C48.5737 72.425 49.1895 72.2616 49.8933 72.2616C50.597 72.2616 51.2129 72.425 51.7281 72.7392C52.2434 73.0534 52.6456 73.4807 52.9095 74.0211C53.186 74.5615 53.3242 75.1898 53.3242 75.8811C53.3242 76.5597 53.186 77.1881 52.9095 77.7411C52.633 78.2815 52.2434 78.7213 51.7281 79.0355C51.2129 79.3497 50.597 79.5005 49.8933 79.5005Z" fill="white"/>
<path d="M63.7427 72.6637C63.504 72.1987 63.0892 71.8091 62.5363 71.5201C61.9833 71.231 61.2669 71.0802 60.3998 71.0802H57.3082C57.1071 71.0802 56.9437 71.1556 56.8055 71.2939C56.6672 71.4321 56.6044 71.5955 56.6044 71.7966V80.0786C56.6044 80.2797 56.6672 80.443 56.8055 80.5687C56.9311 80.707 57.1071 80.7698 57.2956 80.7698C57.4967 80.7698 57.66 80.6944 57.7983 80.5687C57.9365 80.4305 58.0119 80.2671 58.0119 80.0786V77.276H60.3872C61.2544 77.276 61.9707 77.1252 62.5237 76.8361C63.0767 76.5345 63.4788 76.1575 63.7302 75.6925C63.969 75.2275 64.0946 74.7248 64.0946 74.1844C64.0946 73.6314 63.9815 73.1287 63.7427 72.6637ZM62.6871 74.1718C62.6871 74.6745 62.5111 75.0893 62.1592 75.416C61.7948 75.7553 61.1664 75.9187 60.2741 75.9187H58.0245V72.4249H60.2741C61.1664 72.4249 61.7948 72.5883 62.1592 72.9276C62.5111 73.2544 62.6871 73.6691 62.6871 74.1718Z" fill="white"/>
<path opacity="0.1" d="M66.7212 56.9544V65.7391C66.7212 74.8129 59.3692 82.1524 50.308 82.1524H24.2303V83.4343C24.2303 84.7162 25.2734 85.7593 26.5553 85.7593H66.7966C68.0785 85.7593 69.1216 84.7162 69.1216 83.4343V55.7605C68.3173 56.1878 67.513 56.5648 66.7212 56.9544Z" fill="black"/>
<path opacity="0.1" d="M70.3658 53.649V58.6384C68.267 61.5163 66.8846 64.9222 66.4824 68.4662C66.3316 69.8486 66.2436 71.407 65.188 72.3119C63.8181 73.4932 61.6439 72.8774 60.0101 73.6315C57.7731 74.6494 57.4086 77.6154 56.0639 79.6639C54.3799 82.2277 51.15 83.2708 48.1086 83.6855C45.0673 84.1003 41.9128 84.0877 39.0851 85.269C38.1174 85.6712 37.2 86.2744 36.4208 87.0159H26.5553C24.5822 87.0159 22.9735 85.4073 22.9735 83.4342V53.649C37.3257 63.3512 53.1231 63.3512 70.3658 53.649Z" fill="white"/>
<path opacity="0.1" d="M52.6707 60.2847C49.7801 61.6672 47.1409 63.7282 45.5826 66.5308C44.8034 67.9132 44.2881 69.4716 43.2324 70.6655C40.5932 73.6315 35.7422 73.1665 32.3866 75.2904C30.225 76.6728 28.8803 78.9978 27.8749 81.348C27.0957 83.1828 26.4799 85.0931 25.6001 86.8777C24.092 86.4755 22.9735 85.0805 22.9735 83.4342V53.649C32.2609 59.9328 42.1642 62.1447 52.6707 60.2847Z" fill="white"/>
<path d="M67.9276 15.3808C56.2021 3.65528 37.1245 3.65528 25.4115 15.3808C13.6985 27.1064 13.686 46.1839 25.4115 57.8969C31.268 63.7534 38.9719 66.6942 46.6758 66.6942C54.3798 66.6942 62.0711 63.766 67.9402 57.8969C79.6531 46.1714 79.6531 27.0938 67.9276 15.3808ZM62.6995 20.6089C70.6422 28.5516 71.4214 40.9684 65.0873 49.816L33.4925 18.2211C37.4261 15.406 42.0384 13.9733 46.6758 13.9733C52.4821 13.9858 58.2757 16.1851 62.6995 20.6089ZM30.6396 52.6688C22.6969 44.7261 21.9177 32.3093 28.2518 23.4618L59.8466 55.0441C50.9991 61.3781 38.5949 60.6115 30.6396 52.6688Z" fill="#FF003B"/>
<path opacity="0.1" d="M67.9278 15.3808C61.7445 9.1976 53.5253 6.28192 45.4067 6.60868C52.6707 6.9103 59.8594 9.82598 65.4017 15.3808C77.1272 27.0938 77.1272 46.1714 65.4017 57.8969C59.8594 63.4392 52.6833 66.3675 45.4067 66.6691C45.8214 66.6817 46.2487 66.7068 46.6509 66.7068C54.3422 66.7068 62.0587 63.766 67.9152 57.9095C79.6533 46.1714 79.6533 27.0938 67.9278 15.3808Z" fill="black"/>
<path opacity="0.1" d="M67.9275 15.3809C56.202 3.65541 37.1244 3.65541 25.4115 15.3809C13.6859 27.1065 13.6859 46.1715 25.4115 57.897C31.0669 63.5524 38.4692 66.4932 45.9092 66.6818C48.0205 64.5327 49.6292 61.9061 50.245 59.003C43.3077 60.1089 35.9682 57.9976 30.6396 52.6689C22.6969 44.7262 21.9177 32.3095 28.2517 23.4619L54.1284 49.3385C54.5431 49.1249 54.9704 48.8987 55.36 48.6096C57.1571 47.3403 57.9363 45.2038 58.2254 42.9668L33.4924 18.2212C37.4261 15.4061 42.0509 13.9734 46.6632 13.9734C52.4694 13.9734 58.2757 16.1727 62.6994 20.5965C63.8557 21.7527 64.8736 23.0095 65.7031 24.3291C67.5882 22.6953 69.4985 21.1243 71.4465 19.5911C70.4285 18.1207 69.2471 16.7005 67.9275 15.3809Z" fill="white"/>
<path opacity="0.1" d="M25.4117 15.3809C14.126 26.6665 13.6987 44.7387 24.1298 56.5271C25.839 54.5917 27.2842 52.4049 28.3902 50.0422C22.6217 42.1623 22.584 31.3794 28.2645 23.4492L34.2341 29.4188C36.735 28.6145 38.9846 27.3452 41.0709 25.7994L33.4926 18.2211C37.4263 15.406 42.0511 13.9733 46.6634 13.9733C48.2972 13.9733 49.9184 14.1367 51.5145 14.5011C53.0477 12.3772 54.5559 10.203 56.1519 8.1168C45.6957 4.66072 33.7063 7.07369 25.4117 15.3809Z" fill="white"/>
<path d="M33.4423 31.1909V43.9219H7.94273C7.0253 43.9219 6.28381 43.1804 6.28381 42.2629V32.8498C6.28381 31.9324 7.0253 31.1909 7.94273 31.1909H33.4423Z" fill="#FF9F3F"/>
<path d="M33.4423 31.1909H83.9011V43.9219H33.4423V31.1909Z" fill="#E6E6E6"/>
<path d="M31.7834 31.1909H35.1012V43.9219H31.7834V31.1909Z" fill="#F15A24"/>
<path opacity="0.05" d="M33.4423 39.5985H83.9011V43.9218H33.4423V39.5985Z" fill="black"/>
<path opacity="0.05" d="M33.4423 39.5985V43.9218H7.94273C7.0253 43.9218 6.28381 43.1803 6.28381 42.2628V39.5985H33.4423Z" fill="black"/>
<path opacity="0.1" d="M83.9011 31.1909V39.8123C78.8741 40.5286 73.7214 40.3904 68.7572 39.3473C65.5399 38.6812 62.2472 37.6381 59.055 38.3419C56.0891 38.9828 53.563 41.0565 50.5719 41.6346C45.3564 42.6651 40.1283 38.9702 34.8373 39.7117C31.5321 40.1767 28.6415 42.3635 25.3362 42.9039C22.8856 43.3186 20.3721 42.8159 17.9339 42.2881C15.4958 41.7728 12.9823 41.245 10.5317 41.622C9.13665 41.8482 7.75422 42.4138 6.66084 43.306C6.43462 43.0421 6.28381 42.6651 6.28381 42.2629V32.8373C6.28381 31.9324 7.0253 31.1783 7.94273 31.1783H83.9011V31.1909Z" fill="white"/>
<path opacity="0.1" d="M72.7537 31.1909C67.0103 33.5034 61.3298 35.8661 55.2722 35.2251C52.4947 34.9486 49.7927 34.0312 46.9902 34.0438C42.1768 34.094 37.3006 36.8966 32.7637 35.3005C31.0796 34.7098 29.5338 33.5285 27.7618 33.5411C25.4619 33.5536 23.6773 35.5267 21.5157 36.3185C18.0219 37.6255 14.2014 35.7781 10.4688 35.7781C9.01096 35.7781 7.59083 36.0923 6.25867 36.6578V32.8498C6.25867 31.945 7.00015 31.1909 7.91759 31.1909H72.7537Z" fill="white"/>
<path d="M83.6623 44.3491C83.3356 44.2737 83.0214 43.9721 82.9962 43.5825C82.9585 42.9792 83.5618 42.5896 83.7252 42.0241C83.8885 41.4711 83.612 40.8679 83.2727 40.4155C82.946 39.963 82.5438 39.5483 82.4056 38.9828C82.2673 38.4172 82.5941 37.6632 83.0968 37.7134C83.5115 36.9594 83.2224 35.9288 82.77 35.1874C82.3176 34.4459 81.7395 33.7924 81.5258 32.9126C81.3122 32.0329 81.752 30.8767 82.5312 30.8892C82.858 30.9018 83.1596 31.1155 83.4864 31.1029C84.1524 31.0652 84.6049 30.1101 85.271 30.1729C85.648 30.2106 85.9496 30.5751 86.0753 30.9898C86.201 31.4045 86.1758 31.8569 86.1633 32.2968C86.0753 34.2071 85.9873 36.1048 85.8993 38.0151C85.8742 38.5052 85.8616 39.0205 86.025 39.4855C86.1633 39.8625 86.4146 40.1641 86.578 40.5286C86.7414 40.893 86.7791 41.3832 86.5151 41.6596C86.201 41.999 85.5977 41.823 85.3338 42.2252C85.1704 42.464 85.2081 42.8033 85.2835 43.0924C85.3464 43.3814 85.4343 43.683 85.3589 43.9721C85.2207 44.5376 84.0268 44.4371 83.6623 44.3491Z" fill="#343434"/>
<path d="M28.2548 23.4651L33.4882 18.2317L65.0754 49.8188L59.842 55.0522L28.2548 23.4651Z" fill="#FF003B"/>
<path opacity="0.1" d="M28.2643 23.4492L54.1409 49.3258C54.5556 49.1121 54.9829 48.8859 55.3725 48.5969C57.1697 47.3276 57.9489 45.1911 58.2379 42.954L33.4924 18.2211L28.2643 23.4492Z" fill="white"/>
<path opacity="0.1" d="M28.2643 23.4492L34.2339 29.4188C36.7348 28.6144 38.9844 27.3451 41.0706 25.7993L33.4924 18.2211L28.2643 23.4492Z" fill="white"/>
</svg>
